<mxfile host="app.diagrams.net" modified="2023-02-19T12:14:29.544Z" agent="5.0 (Windows NT 10.0; Win64; x64) AppleWebKit/537.36 (KHTML, like Gecko) Chrome/110.0.0.0 Safari/537.36" etag="dYDKwsuw8pLfRDIaYo1Q" version="20.8.13" type="github">
  <diagram name="Page-1" id="JejIAMrq3apQycHYMO_0">
    <mxGraphModel dx="1434" dy="764" grid="1" gridSize="10" guides="1" tooltips="1" connect="1" arrows="1" fold="1" page="1" pageScale="1" pageWidth="827" pageHeight="1169" math="0" shadow="0">
      <root>
        <mxCell id="0" />
        <mxCell id="1" parent="0" />
        <mxCell id="jHrQkCw1s01dqRSnQYNy-7" value="no money" style="edgeStyle=orthogonalEdgeStyle;rounded=0;orthogonalLoop=1;jettySize=auto;html=1;exitX=1;exitY=0.5;exitDx=0;exitDy=0;entryX=0;entryY=0.5;entryDx=0;entryDy=0;fontSize=24;strokeColor=default;startArrow=classic;startFill=1;" edge="1" parent="1" source="jHrQkCw1s01dqRSnQYNy-1" target="jHrQkCw1s01dqRSnQYNy-2">
          <mxGeometry relative="1" as="geometry" />
        </mxCell>
        <mxCell id="jHrQkCw1s01dqRSnQYNy-1" value="AT&amp;amp;T&lt;br&gt;TIER 1&lt;br&gt;ISP" style="rounded=0;whiteSpace=wrap;html=1;fontSize=24;" vertex="1" parent="1">
          <mxGeometry x="80" y="240" width="120" height="90" as="geometry" />
        </mxCell>
        <mxCell id="jHrQkCw1s01dqRSnQYNy-2" value="NTT&lt;br&gt;TIER 1&lt;br&gt;ISP" style="rounded=0;whiteSpace=wrap;html=1;fontSize=24;" vertex="1" parent="1">
          <mxGeometry x="380" y="240" width="120" height="90" as="geometry" />
        </mxCell>
        <mxCell id="jHrQkCw1s01dqRSnQYNy-9" value="money" style="edgeStyle=orthogonalEdgeStyle;rounded=0;orthogonalLoop=1;jettySize=auto;html=1;exitX=0.5;exitY=0;exitDx=0;exitDy=0;entryX=0.5;entryY=1;entryDx=0;entryDy=0;strokeColor=default;fontSize=24;startArrow=none;startFill=0;" edge="1" parent="1" source="jHrQkCw1s01dqRSnQYNy-3" target="jHrQkCw1s01dqRSnQYNy-1">
          <mxGeometry relative="1" as="geometry" />
        </mxCell>
        <mxCell id="jHrQkCw1s01dqRSnQYNy-11" style="edgeStyle=none;rounded=0;orthogonalLoop=1;jettySize=auto;html=1;exitX=1;exitY=0;exitDx=0;exitDy=0;entryX=0;entryY=0.75;entryDx=0;entryDy=0;strokeColor=default;fontSize=24;startArrow=classic;startFill=1;" edge="1" parent="1" source="jHrQkCw1s01dqRSnQYNy-3" target="jHrQkCw1s01dqRSnQYNy-2">
          <mxGeometry relative="1" as="geometry" />
        </mxCell>
        <mxCell id="jHrQkCw1s01dqRSnQYNy-12" value="no money" style="edgeStyle=none;rounded=0;orthogonalLoop=1;jettySize=auto;html=1;exitX=1;exitY=0.5;exitDx=0;exitDy=0;entryX=0;entryY=0.5;entryDx=0;entryDy=0;strokeColor=default;fontSize=24;startArrow=classic;startFill=1;" edge="1" parent="1" source="jHrQkCw1s01dqRSnQYNy-3" target="jHrQkCw1s01dqRSnQYNy-4">
          <mxGeometry relative="1" as="geometry" />
        </mxCell>
        <mxCell id="jHrQkCw1s01dqRSnQYNy-14" style="edgeStyle=none;rounded=0;orthogonalLoop=1;jettySize=auto;html=1;exitX=0.5;exitY=1;exitDx=0;exitDy=0;strokeColor=default;fontSize=24;startArrow=classic;startFill=1;" edge="1" parent="1" source="jHrQkCw1s01dqRSnQYNy-3">
          <mxGeometry relative="1" as="geometry">
            <mxPoint x="136.98417253088041" y="470.952517592641" as="targetPoint" />
          </mxGeometry>
        </mxCell>
        <mxCell id="jHrQkCw1s01dqRSnQYNy-15" style="edgeStyle=none;rounded=0;orthogonalLoop=1;jettySize=auto;html=1;exitX=0.5;exitY=1;exitDx=0;exitDy=0;entryX=0.5;entryY=0;entryDx=0;entryDy=0;strokeColor=default;fontSize=24;startArrow=classic;startFill=1;" edge="1" parent="1" source="jHrQkCw1s01dqRSnQYNy-3" target="jHrQkCw1s01dqRSnQYNy-5">
          <mxGeometry relative="1" as="geometry" />
        </mxCell>
        <mxCell id="jHrQkCw1s01dqRSnQYNy-3" value="Regional&lt;br&gt;ISP" style="ellipse;whiteSpace=wrap;html=1;fontSize=24;" vertex="1" parent="1">
          <mxGeometry x="80" y="400" width="120" height="80" as="geometry" />
        </mxCell>
        <mxCell id="jHrQkCw1s01dqRSnQYNy-8" value="money" style="edgeStyle=orthogonalEdgeStyle;rounded=0;orthogonalLoop=1;jettySize=auto;html=1;exitX=0.5;exitY=0;exitDx=0;exitDy=0;entryX=0.5;entryY=1;entryDx=0;entryDy=0;strokeColor=default;fontSize=24;startArrow=none;startFill=0;" edge="1" parent="1" source="jHrQkCw1s01dqRSnQYNy-4" target="jHrQkCw1s01dqRSnQYNy-2">
          <mxGeometry relative="1" as="geometry" />
        </mxCell>
        <mxCell id="jHrQkCw1s01dqRSnQYNy-10" style="rounded=0;orthogonalLoop=1;jettySize=auto;html=1;exitX=0;exitY=0;exitDx=0;exitDy=0;entryX=1;entryY=0.75;entryDx=0;entryDy=0;strokeColor=default;fontSize=24;startArrow=classic;startFill=1;" edge="1" parent="1" source="jHrQkCw1s01dqRSnQYNy-4" target="jHrQkCw1s01dqRSnQYNy-1">
          <mxGeometry relative="1" as="geometry" />
        </mxCell>
        <mxCell id="jHrQkCw1s01dqRSnQYNy-16" style="edgeStyle=none;rounded=0;orthogonalLoop=1;jettySize=auto;html=1;exitX=0.5;exitY=1;exitDx=0;exitDy=0;entryX=0.5;entryY=0;entryDx=0;entryDy=0;strokeColor=default;fontSize=24;startArrow=classic;startFill=1;" edge="1" parent="1" source="jHrQkCw1s01dqRSnQYNy-4" target="jHrQkCw1s01dqRSnQYNy-6">
          <mxGeometry relative="1" as="geometry" />
        </mxCell>
        <mxCell id="jHrQkCw1s01dqRSnQYNy-4" value="Regional&lt;br&gt;ISP" style="ellipse;whiteSpace=wrap;html=1;fontSize=24;" vertex="1" parent="1">
          <mxGeometry x="380" y="400" width="120" height="80" as="geometry" />
        </mxCell>
        <mxCell id="jHrQkCw1s01dqRSnQYNy-17" style="edgeStyle=none;rounded=0;orthogonalLoop=1;jettySize=auto;html=1;exitX=0.75;exitY=0;exitDx=0;exitDy=0;entryX=0;entryY=1;entryDx=0;entryDy=0;strokeColor=default;fontSize=24;startArrow=classic;startFill=1;" edge="1" parent="1" source="jHrQkCw1s01dqRSnQYNy-5" target="jHrQkCw1s01dqRSnQYNy-4">
          <mxGeometry relative="1" as="geometry" />
        </mxCell>
        <mxCell id="jHrQkCw1s01dqRSnQYNy-5" value="Access&lt;br&gt;ISP" style="rounded=1;whiteSpace=wrap;html=1;fontSize=24;" vertex="1" parent="1">
          <mxGeometry x="80" y="540" width="120" height="60" as="geometry" />
        </mxCell>
        <mxCell id="jHrQkCw1s01dqRSnQYNy-18" style="edgeStyle=none;rounded=0;orthogonalLoop=1;jettySize=auto;html=1;exitX=0.25;exitY=0;exitDx=0;exitDy=0;entryX=0.917;entryY=0.788;entryDx=0;entryDy=0;entryPerimeter=0;strokeColor=default;fontSize=24;startArrow=classic;startFill=1;" edge="1" parent="1" source="jHrQkCw1s01dqRSnQYNy-6" target="jHrQkCw1s01dqRSnQYNy-3">
          <mxGeometry relative="1" as="geometry" />
        </mxCell>
        <mxCell id="jHrQkCw1s01dqRSnQYNy-6" value="Access&lt;br&gt;ISP" style="rounded=1;whiteSpace=wrap;html=1;fontSize=24;" vertex="1" parent="1">
          <mxGeometry x="380" y="540" width="120" height="60" as="geometry" />
        </mxCell>
      </root>
    </mxGraphModel>
  </diagram>
</mxfile>
